<svg width="895" height="865" viewBox="0 0 895 865" fill="none" xmlns="http://www.w3.org/2000/svg">
<g style="mix-blend-mode:soft-light">
<mask id="mask0_1801_23550" style="mask-type:alpha" maskUnits="userSpaceOnUse" x="0" y="0" width="895" height="864">
<mask id="mask1_1801_23550" style="mask-type:alpha" maskUnits="userSpaceOnUse" x="0" y="0" width="895" height="865">
<path d="M58.3726 12.9901C61.9535 12.9901 64.8565 10.0872 64.8565 6.50619C64.8565 2.92523 61.9535 0.0222778 58.3726 0.0222778C54.7916 0.0222778 51.8887 2.92523 51.8887 6.50619C51.8887 10.0872 54.7916 12.9901 58.3726 12.9901Z" fill="#0C4A6E"/>
<path d="M888.496 12.9899C892.077 12.9899 894.98 10.0869 894.98 6.50595C894.98 2.92498 892.077 0.0220337 888.496 0.0220337C884.915 0.0220337 882.012 2.92498 882.012 6.50595C882.012 10.0869 884.915 12.9899 888.496 12.9899Z" fill="#0C4A6E"/>
<path d="M473.435 13.0115C477.028 13.0115 479.941 10.0988 479.941 6.50577C479.941 2.91275 477.028 0 473.435 0C469.842 0 466.93 2.91275 466.93 6.50577C466.93 10.0988 469.842 13.0115 473.435 13.0115Z" fill="#0C4A6E"/>
<path d="M265.908 12.9899C269.489 12.9899 272.392 10.0869 272.392 6.50595C272.392 2.92498 269.489 0.0220337 265.908 0.0220337C262.327 0.0220337 259.424 2.92498 259.424 6.50595C259.424 10.0869 262.327 12.9899 265.908 12.9899Z" fill="#0C4A6E"/>
<path d="M369.669 12.9899C373.25 12.9899 376.153 10.0869 376.153 6.50595C376.153 2.92498 373.25 0.0220337 369.669 0.0220337C366.088 0.0220337 363.186 2.92498 363.186 6.50595C363.186 10.0869 366.088 12.9899 369.669 12.9899Z" fill="#0C4A6E"/>
<path d="M162.138 12.9899C165.719 12.9899 168.622 10.0869 168.622 6.50595C168.622 2.92498 165.719 0.0220337 162.138 0.0220337C158.557 0.0220337 155.654 2.92498 155.654 6.50595C155.654 10.0869 158.557 12.9899 162.138 12.9899Z" fill="#0C4A6E"/>
<path d="M784.726 12.9899C788.307 12.9899 791.21 10.0869 791.21 6.50595C791.21 2.92498 788.307 0.0220337 784.726 0.0220337C781.145 0.0220337 778.242 2.92498 778.242 6.50595C778.242 10.0869 781.145 12.9899 784.726 12.9899Z" fill="#0C4A6E"/>
<path d="M577.203 13.0115C580.796 13.0115 583.709 10.0988 583.709 6.50577C583.709 2.91275 580.796 0 577.203 0C573.61 0 570.697 2.91275 570.697 6.50577C570.697 10.0988 573.61 13.0115 577.203 13.0115Z" fill="#0C4A6E"/>
<path d="M680.962 12.9899C684.543 12.9899 687.446 10.0869 687.446 6.50595C687.446 2.92498 684.543 0.0220337 680.962 0.0220337C677.381 0.0220337 674.479 2.92498 674.479 6.50595C674.479 10.0869 677.381 12.9899 680.962 12.9899Z" fill="#0C4A6E"/>
<path d="M6.49954 12.99C10.0805 12.99 12.9835 10.087 12.9835 6.50607C12.9835 2.92511 10.0805 0.0221558 6.49954 0.0221558C2.91857 0.0221558 0.015625 2.92511 0.015625 6.50607C0.015625 10.087 2.91857 12.99 6.49954 12.99Z" fill="#0C4A6E"/>
<path d="M836.601 12.9899C840.182 12.9899 843.085 10.0869 843.085 6.50595C843.085 2.92498 840.182 0.0220337 836.601 0.0220337C833.02 0.0220337 830.117 2.92498 830.117 6.50595C830.117 10.0869 833.02 12.9899 836.601 12.9899Z" fill="#0C4A6E"/>
<path d="M421.537 12.9901C425.118 12.9901 428.021 10.0872 428.021 6.50619C428.021 2.92523 425.118 0.0222778 421.537 0.0222778C417.956 0.0222778 415.053 2.92523 415.053 6.50619C415.053 10.0872 417.956 12.9901 421.537 12.9901Z" fill="#0C4A6E"/>
<path d="M214.019 12.9899C217.6 12.9899 220.503 10.0869 220.503 6.50595C220.503 2.92498 217.6 0.0220337 214.019 0.0220337C210.438 0.0220337 207.535 2.92498 207.535 6.50595C207.535 10.0869 210.438 12.9899 214.019 12.9899Z" fill="#0C4A6E"/>
<path d="M317.769 12.9899C321.35 12.9899 324.253 10.0869 324.253 6.50595C324.253 2.92498 321.35 0.0220337 317.769 0.0220337C314.188 0.0220337 311.285 2.92498 311.285 6.50595C311.285 10.0869 314.188 12.9899 317.769 12.9899Z" fill="#0C4A6E"/>
<path d="M110.253 12.9899C113.834 12.9899 116.737 10.0869 116.737 6.50595C116.737 2.92498 113.834 0.0220337 110.253 0.0220337C106.672 0.0220337 103.77 2.92498 103.77 6.50595C103.77 10.0869 106.672 12.9899 110.253 12.9899Z" fill="#0C4A6E"/>
<path d="M732.832 12.9899C736.413 12.9899 739.315 10.0869 739.315 6.50595C739.315 2.92498 736.413 0.0220337 732.832 0.0220337C729.251 0.0220337 726.348 2.92498 726.348 6.50595C726.348 10.0869 729.251 12.9899 732.832 12.9899Z" fill="#0C4A6E"/>
<path d="M525.308 12.9901C528.889 12.9901 531.792 10.0872 531.792 6.50619C531.792 2.92523 528.889 0.0222778 525.308 0.0222778C521.727 0.0222778 518.824 2.92523 518.824 6.50619C518.824 10.0872 521.727 12.9901 525.308 12.9901Z" fill="#0C4A6E"/>
<path d="M629.076 12.9899C632.657 12.9899 635.56 10.0869 635.56 6.50595C635.56 2.92498 632.657 0.0220337 629.076 0.0220337C625.495 0.0220337 622.592 2.92498 622.592 6.50595C622.592 10.0869 625.495 12.9899 629.076 12.9899Z" fill="#0C4A6E"/>
<path d="M58.3726 69.7526C61.9535 69.7526 64.8565 66.8496 64.8565 63.2686C64.8565 59.6877 61.9535 56.7847 58.3726 56.7847C54.7916 56.7847 51.8887 59.6877 51.8887 63.2686C51.8887 66.8496 54.7916 69.7526 58.3726 69.7526Z" fill="#0C4A6E"/>
<path d="M888.496 69.7527C892.077 69.7527 894.98 66.8498 894.98 63.2688C894.98 59.6879 892.077 56.7849 888.496 56.7849C884.915 56.7849 882.012 59.6879 882.012 63.2688C882.012 66.8498 884.915 69.7527 888.496 69.7527Z" fill="#0C4A6E"/>
<path d="M473.435 69.7714C477.028 69.7714 479.941 66.8587 479.941 63.2657C479.941 59.6726 477.028 56.7599 473.435 56.7599C469.842 56.7599 466.93 59.6726 466.93 63.2657C466.93 66.8587 469.842 69.7714 473.435 69.7714Z" fill="#0C4A6E"/>
<path d="M265.908 69.7527C269.489 69.7527 272.392 66.8498 272.392 63.2688C272.392 59.6879 269.489 56.7849 265.908 56.7849C262.327 56.7849 259.424 59.6879 259.424 63.2688C259.424 66.8498 262.327 69.7527 265.908 69.7527Z" fill="#0C4A6E"/>
<path d="M369.669 69.7527C373.25 69.7527 376.153 66.8498 376.153 63.2688C376.153 59.6879 373.25 56.7849 369.669 56.7849C366.088 56.7849 363.186 59.6879 363.186 63.2688C363.186 66.8498 366.088 69.7527 369.669 69.7527Z" fill="#0C4A6E"/>
<path d="M162.138 69.7527C165.719 69.7527 168.622 66.8498 168.622 63.2688C168.622 59.6879 165.719 56.7849 162.138 56.7849C158.557 56.7849 155.654 59.6879 155.654 63.2688C155.654 66.8498 158.557 69.7527 162.138 69.7527Z" fill="#0C4A6E"/>
<path d="M784.726 69.7527C788.307 69.7527 791.21 66.8498 791.21 63.2688C791.21 59.6879 788.307 56.7849 784.726 56.7849C781.145 56.7849 778.242 59.6879 778.242 63.2688C778.242 66.8498 781.145 69.7527 784.726 69.7527Z" fill="#0C4A6E"/>
<path d="M577.203 69.7714C580.796 69.7714 583.709 66.8587 583.709 63.2657C583.709 59.6726 580.796 56.7599 577.203 56.7599C573.61 56.7599 570.697 59.6726 570.697 63.2657C570.697 66.8587 573.61 69.7714 577.203 69.7714Z" fill="#0C4A6E"/>
<path d="M680.962 69.7527C684.543 69.7527 687.446 66.8498 687.446 63.2688C687.446 59.6879 684.543 56.7849 680.962 56.7849C677.381 56.7849 674.479 59.6879 674.479 63.2688C674.479 66.8498 677.381 69.7527 680.962 69.7527Z" fill="#0C4A6E"/>
<path d="M6.49954 69.7527C10.0805 69.7527 12.9835 66.8498 12.9835 63.2688C12.9835 59.6879 10.0805 56.7849 6.49954 56.7849C2.91857 56.7849 0.015625 59.6879 0.015625 63.2688C0.015625 66.8498 2.91857 69.7527 6.49954 69.7527Z" fill="#0C4A6E"/>
<path d="M836.601 69.7527C840.182 69.7527 843.085 66.8498 843.085 63.2688C843.085 59.6879 840.182 56.7849 836.601 56.7849C833.02 56.7849 830.117 59.6879 830.117 63.2688C830.117 66.8498 833.02 69.7527 836.601 69.7527Z" fill="#0C4A6E"/>
<path d="M421.537 69.7526C425.118 69.7526 428.021 66.8496 428.021 63.2686C428.021 59.6877 425.118 56.7847 421.537 56.7847C417.956 56.7847 415.053 59.6877 415.053 63.2686C415.053 66.8496 417.956 69.7526 421.537 69.7526Z" fill="#0C4A6E"/>
<path d="M214.019 69.7527C217.6 69.7527 220.503 66.8498 220.503 63.2688C220.503 59.6879 217.6 56.7849 214.019 56.7849C210.438 56.7849 207.535 59.6879 207.535 63.2688C207.535 66.8498 210.438 69.7527 214.019 69.7527Z" fill="#0C4A6E"/>
<path d="M317.769 69.7527C321.35 69.7527 324.253 66.8498 324.253 63.2688C324.253 59.6879 321.35 56.7849 317.769 56.7849C314.188 56.7849 311.285 59.6879 311.285 63.2688C311.285 66.8498 314.188 69.7527 317.769 69.7527Z" fill="#0C4A6E"/>
<path d="M110.253 69.7527C113.834 69.7527 116.737 66.8498 116.737 63.2688C116.737 59.6879 113.834 56.7849 110.253 56.7849C106.672 56.7849 103.77 59.6879 103.77 63.2688C103.77 66.8498 106.672 69.7527 110.253 69.7527Z" fill="#0C4A6E"/>
<path d="M732.832 69.7527C736.413 69.7527 739.315 66.8498 739.315 63.2688C739.315 59.6879 736.413 56.7849 732.832 56.7849C729.251 56.7849 726.348 59.6879 726.348 63.2688C726.348 66.8498 729.251 69.7527 732.832 69.7527Z" fill="#0C4A6E"/>
<path d="M525.308 69.7526C528.889 69.7526 531.792 66.8496 531.792 63.2686C531.792 59.6877 528.889 56.7847 525.308 56.7847C521.727 56.7847 518.824 59.6877 518.824 63.2686C518.824 66.8496 521.727 69.7526 525.308 69.7526Z" fill="#0C4A6E"/>
<path d="M629.076 69.7527C632.657 69.7527 635.56 66.8498 635.56 63.2688C635.56 59.6879 632.657 56.7849 629.076 56.7849C625.495 56.7849 622.592 59.6879 622.592 63.2688C622.592 66.8498 625.495 69.7527 629.076 69.7527Z" fill="#0C4A6E"/>
<path d="M58.3726 126.51C61.9535 126.51 64.8565 123.607 64.8565 120.026C64.8565 116.445 61.9535 113.543 58.3726 113.543C54.7916 113.543 51.8887 116.445 51.8887 120.026C51.8887 123.607 54.7916 126.51 58.3726 126.51Z" fill="#0C4A6E"/>
<path d="M888.496 126.51C892.077 126.51 894.98 123.607 894.98 120.026C894.98 116.445 892.077 113.542 888.496 113.542C884.915 113.542 882.012 116.445 882.012 120.026C882.012 123.607 884.915 126.51 888.496 126.51Z" fill="#0C4A6E"/>
<path d="M473.435 126.536C477.028 126.536 479.941 123.623 479.941 120.03C479.941 116.437 477.028 113.525 473.435 113.525C469.842 113.525 466.93 116.437 466.93 120.03C466.93 123.623 469.842 126.536 473.435 126.536Z" fill="#0C4A6E"/>
<path d="M265.908 126.51C269.489 126.51 272.392 123.607 272.392 120.026C272.392 116.445 269.489 113.542 265.908 113.542C262.327 113.542 259.424 116.445 259.424 120.026C259.424 123.607 262.327 126.51 265.908 126.51Z" fill="#0C4A6E"/>
<path d="M369.669 126.51C373.25 126.51 376.153 123.607 376.153 120.026C376.153 116.445 373.25 113.542 369.669 113.542C366.088 113.542 363.186 116.445 363.186 120.026C363.186 123.607 366.088 126.51 369.669 126.51Z" fill="#0C4A6E"/>
<path d="M162.138 126.51C165.719 126.51 168.622 123.607 168.622 120.026C168.622 116.445 165.719 113.542 162.138 113.542C158.557 113.542 155.654 116.445 155.654 120.026C155.654 123.607 158.557 126.51 162.138 126.51Z" fill="#0C4A6E"/>
<path d="M784.726 126.51C788.307 126.51 791.21 123.607 791.21 120.026C791.21 116.445 788.307 113.542 784.726 113.542C781.145 113.542 778.242 116.445 778.242 120.026C778.242 123.607 781.145 126.51 784.726 126.51Z" fill="#0C4A6E"/>
<path d="M577.203 126.536C580.796 126.536 583.709 123.623 583.709 120.03C583.709 116.437 580.796 113.525 577.203 113.525C573.61 113.525 570.697 116.437 570.697 120.03C570.697 123.623 573.61 126.536 577.203 126.536Z" fill="#0C4A6E"/>
<path d="M680.962 126.51C684.543 126.51 687.446 123.607 687.446 120.026C687.446 116.445 684.543 113.542 680.962 113.542C677.381 113.542 674.479 116.445 674.479 120.026C674.479 123.607 677.381 126.51 680.962 126.51Z" fill="#0C4A6E"/>
<path d="M6.49954 126.51C10.0805 126.51 12.9835 123.607 12.9835 120.026C12.9835 116.445 10.0805 113.542 6.49954 113.542C2.91857 113.542 0.015625 116.445 0.015625 120.026C0.015625 123.607 2.91857 126.51 6.49954 126.51Z" fill="#0C4A6E"/>
<path d="M836.601 126.51C840.182 126.51 843.085 123.607 843.085 120.026C843.085 116.445 840.182 113.542 836.601 113.542C833.02 113.542 830.117 116.445 830.117 120.026C830.117 123.607 833.02 126.51 836.601 126.51Z" fill="#0C4A6E"/>
<path d="M421.537 126.51C425.118 126.51 428.021 123.607 428.021 120.026C428.021 116.445 425.118 113.543 421.537 113.543C417.956 113.543 415.053 116.445 415.053 120.026C415.053 123.607 417.956 126.51 421.537 126.51Z" fill="#0C4A6E"/>
<path d="M214.019 126.51C217.6 126.51 220.503 123.607 220.503 120.026C220.503 116.445 217.6 113.542 214.019 113.542C210.438 113.542 207.535 116.445 207.535 120.026C207.535 123.607 210.438 126.51 214.019 126.51Z" fill="#0C4A6E"/>
<path d="M317.769 126.51C321.35 126.51 324.253 123.607 324.253 120.026C324.253 116.445 321.35 113.542 317.769 113.542C314.188 113.542 311.285 116.445 311.285 120.026C311.285 123.607 314.188 126.51 317.769 126.51Z" fill="#0C4A6E"/>
<path d="M110.253 126.51C113.834 126.51 116.737 123.607 116.737 120.026C116.737 116.445 113.834 113.542 110.253 113.542C106.672 113.542 103.77 116.445 103.77 120.026C103.77 123.607 106.672 126.51 110.253 126.51Z" fill="#0C4A6E"/>
<path d="M732.832 126.51C736.413 126.51 739.315 123.607 739.315 120.026C739.315 116.445 736.413 113.542 732.832 113.542C729.251 113.542 726.348 116.445 726.348 120.026C726.348 123.607 729.251 126.51 732.832 126.51Z" fill="#0C4A6E"/>
<path d="M525.308 126.51C528.889 126.51 531.792 123.607 531.792 120.026C531.792 116.445 528.889 113.543 525.308 113.543C521.727 113.543 518.824 116.445 518.824 120.026C518.824 123.607 521.727 126.51 525.308 126.51Z" fill="#0C4A6E"/>
<path d="M629.076 126.51C632.657 126.51 635.56 123.607 635.56 120.026C635.56 116.445 632.657 113.542 629.076 113.542C625.495 113.542 622.592 116.445 622.592 120.026C622.592 123.607 625.495 126.51 629.076 126.51Z" fill="#0C4A6E"/>
<path d="M58.3726 183.275C61.9535 183.275 64.8565 180.372 64.8565 176.791C64.8565 173.211 61.9535 170.308 58.3726 170.308C54.7916 170.308 51.8887 173.211 51.8887 176.791C51.8887 180.372 54.7916 183.275 58.3726 183.275Z" fill="#0C4A6E"/>
<path d="M888.496 183.276C892.077 183.276 894.98 180.373 894.98 176.792C894.98 173.211 892.077 170.308 888.496 170.308C884.915 170.308 882.012 173.211 882.012 176.792C882.012 180.373 884.915 183.276 888.496 183.276Z" fill="#0C4A6E"/>
<path d="M473.435 183.294C477.028 183.294 479.941 180.381 479.941 176.788C479.941 173.195 477.028 170.282 473.435 170.282C469.842 170.282 466.93 173.195 466.93 176.788C466.93 180.381 469.842 183.294 473.435 183.294Z" fill="#0C4A6E"/>
<path d="M265.908 183.276C269.489 183.276 272.392 180.373 272.392 176.792C272.392 173.211 269.489 170.308 265.908 170.308C262.327 170.308 259.424 173.211 259.424 176.792C259.424 180.373 262.327 183.276 265.908 183.276Z" fill="#0C4A6E"/>
<path d="M369.669 183.276C373.25 183.276 376.153 180.373 376.153 176.792C376.153 173.211 373.25 170.308 369.669 170.308C366.088 170.308 363.186 173.211 363.186 176.792C363.186 180.373 366.088 183.276 369.669 183.276Z" fill="#0C4A6E"/>
<path d="M162.138 183.276C165.719 183.276 168.622 180.373 168.622 176.792C168.622 173.211 165.719 170.308 162.138 170.308C158.557 170.308 155.654 173.211 155.654 176.792C155.654 180.373 158.557 183.276 162.138 183.276Z" fill="#0C4A6E"/>
<path d="M784.726 183.276C788.307 183.276 791.21 180.373 791.21 176.792C791.21 173.211 788.307 170.308 784.726 170.308C781.145 170.308 778.242 173.211 778.242 176.792C778.242 180.373 781.145 183.276 784.726 183.276Z" fill="#0C4A6E"/>
<path d="M577.203 183.294C580.796 183.294 583.709 180.381 583.709 176.788C583.709 173.195 580.796 170.282 577.203 170.282C573.61 170.282 570.697 173.195 570.697 176.788C570.697 180.381 573.61 183.294 577.203 183.294Z" fill="#0C4A6E"/>
<path d="M680.962 183.276C684.543 183.276 687.446 180.373 687.446 176.792C687.446 173.211 684.543 170.308 680.962 170.308C677.381 170.308 674.479 173.211 674.479 176.792C674.479 180.373 677.381 183.276 680.962 183.276Z" fill="#0C4A6E"/>
<path d="M6.49954 183.276C10.0805 183.276 12.9835 180.373 12.9835 176.792C12.9835 173.211 10.0805 170.308 6.49954 170.308C2.91857 170.308 0.015625 173.211 0.015625 176.792C0.015625 180.373 2.91857 183.276 6.49954 183.276Z" fill="#0C4A6E"/>
<path d="M836.601 183.276C840.182 183.276 843.085 180.373 843.085 176.792C843.085 173.211 840.182 170.308 836.601 170.308C833.02 170.308 830.117 173.211 830.117 176.792C830.117 180.373 833.02 183.276 836.601 183.276Z" fill="#0C4A6E"/>
<path d="M421.537 183.275C425.118 183.275 428.021 180.372 428.021 176.791C428.021 173.211 425.118 170.308 421.537 170.308C417.956 170.308 415.053 173.211 415.053 176.791C415.053 180.372 417.956 183.275 421.537 183.275Z" fill="#0C4A6E"/>
<path d="M214.019 183.276C217.6 183.276 220.503 180.373 220.503 176.792C220.503 173.211 217.6 170.308 214.019 170.308C210.438 170.308 207.535 173.211 207.535 176.792C207.535 180.373 210.438 183.276 214.019 183.276Z" fill="#0C4A6E"/>
<path d="M317.769 183.276C321.35 183.276 324.253 180.373 324.253 176.792C324.253 173.211 321.35 170.308 317.769 170.308C314.188 170.308 311.285 173.211 311.285 176.792C311.285 180.373 314.188 183.276 317.769 183.276Z" fill="#0C4A6E"/>
<path d="M110.253 183.276C113.834 183.276 116.737 180.373 116.737 176.792C116.737 173.211 113.834 170.308 110.253 170.308C106.672 170.308 103.77 173.211 103.77 176.792C103.77 180.373 106.672 183.276 110.253 183.276Z" fill="#0C4A6E"/>
<path d="M732.832 183.276C736.413 183.276 739.315 180.373 739.315 176.792C739.315 173.211 736.413 170.308 732.832 170.308C729.251 170.308 726.348 173.211 726.348 176.792C726.348 180.373 729.251 183.276 732.832 183.276Z" fill="#0C4A6E"/>
<path d="M525.308 183.275C528.889 183.275 531.792 180.372 531.792 176.791C531.792 173.211 528.889 170.308 525.308 170.308C521.727 170.308 518.824 173.211 518.824 176.791C518.824 180.372 521.727 183.275 525.308 183.275Z" fill="#0C4A6E"/>
<path d="M629.076 183.276C632.657 183.276 635.56 180.373 635.56 176.792C635.56 173.211 632.657 170.308 629.076 170.308C625.495 170.308 622.592 173.211 622.592 176.792C622.592 180.373 625.495 183.276 629.076 183.276Z" fill="#0C4A6E"/>
<path d="M58.3726 240.035C61.9535 240.035 64.8565 237.132 64.8565 233.551C64.8565 229.97 61.9535 227.067 58.3726 227.067C54.7916 227.067 51.8887 229.97 51.8887 233.551C51.8887 237.132 54.7916 240.035 58.3726 240.035Z" fill="#0C4A6E"/>
<path d="M888.496 240.035C892.077 240.035 894.98 237.132 894.98 233.551C894.98 229.971 892.077 227.068 888.496 227.068C884.915 227.068 882.012 229.971 882.012 233.551C882.012 237.132 884.915 240.035 888.496 240.035Z" fill="#0C4A6E"/>
<path d="M473.435 240.059C477.028 240.059 479.941 237.146 479.941 233.553C479.941 229.96 477.028 227.047 473.435 227.047C469.842 227.047 466.93 229.96 466.93 233.553C466.93 237.146 469.842 240.059 473.435 240.059Z" fill="#0C4A6E"/>
<path d="M265.908 240.035C269.489 240.035 272.392 237.132 272.392 233.551C272.392 229.971 269.489 227.068 265.908 227.068C262.327 227.068 259.424 229.971 259.424 233.551C259.424 237.132 262.327 240.035 265.908 240.035Z" fill="#0C4A6E"/>
<path d="M369.669 240.035C373.25 240.035 376.153 237.132 376.153 233.551C376.153 229.971 373.25 227.068 369.669 227.068C366.088 227.068 363.186 229.971 363.186 233.551C363.186 237.132 366.088 240.035 369.669 240.035Z" fill="#0C4A6E"/>
<path d="M162.138 240.035C165.719 240.035 168.622 237.132 168.622 233.551C168.622 229.971 165.719 227.068 162.138 227.068C158.557 227.068 155.654 229.971 155.654 233.551C155.654 237.132 158.557 240.035 162.138 240.035Z" fill="#0C4A6E"/>
<path d="M784.726 240.035C788.307 240.035 791.21 237.132 791.21 233.551C791.21 229.971 788.307 227.068 784.726 227.068C781.145 227.068 778.242 229.971 778.242 233.551C778.242 237.132 781.145 240.035 784.726 240.035Z" fill="#0C4A6E"/>
<path d="M577.203 240.059C580.796 240.059 583.709 237.146 583.709 233.553C583.709 229.96 580.796 227.047 577.203 227.047C573.61 227.047 570.697 229.96 570.697 233.553C570.697 237.146 573.61 240.059 577.203 240.059Z" fill="#0C4A6E"/>
<path d="M680.962 240.035C684.543 240.035 687.446 237.132 687.446 233.551C687.446 229.971 684.543 227.068 680.962 227.068C677.381 227.068 674.479 229.971 674.479 233.551C674.479 237.132 677.381 240.035 680.962 240.035Z" fill="#0C4A6E"/>
<path d="M6.49954 240.035C10.0805 240.035 12.9835 237.132 12.9835 233.551C12.9835 229.971 10.0805 227.068 6.49954 227.068C2.91857 227.068 0.015625 229.971 0.015625 233.551C0.015625 237.132 2.91857 240.035 6.49954 240.035Z" fill="#0C4A6E"/>
<path d="M836.601 240.035C840.182 240.035 843.085 237.132 843.085 233.551C843.085 229.971 840.182 227.068 836.601 227.068C833.02 227.068 830.117 229.971 830.117 233.551C830.117 237.132 833.02 240.035 836.601 240.035Z" fill="#0C4A6E"/>
<path d="M421.537 240.035C425.118 240.035 428.021 237.132 428.021 233.551C428.021 229.97 425.118 227.067 421.537 227.067C417.956 227.067 415.053 229.97 415.053 233.551C415.053 237.132 417.956 240.035 421.537 240.035Z" fill="#0C4A6E"/>
<path d="M214.019 240.035C217.6 240.035 220.503 237.132 220.503 233.551C220.503 229.971 217.6 227.068 214.019 227.068C210.438 227.068 207.535 229.971 207.535 233.551C207.535 237.132 210.438 240.035 214.019 240.035Z" fill="#0C4A6E"/>
<path d="M317.769 240.035C321.35 240.035 324.253 237.132 324.253 233.551C324.253 229.971 321.35 227.068 317.769 227.068C314.188 227.068 311.285 229.971 311.285 233.551C311.285 237.132 314.188 240.035 317.769 240.035Z" fill="#0C4A6E"/>
<path d="M110.253 240.035C113.834 240.035 116.737 237.132 116.737 233.551C116.737 229.971 113.834 227.068 110.253 227.068C106.672 227.068 103.77 229.971 103.77 233.551C103.77 237.132 106.672 240.035 110.253 240.035Z" fill="#0C4A6E"/>
<path d="M732.832 240.035C736.413 240.035 739.315 237.132 739.315 233.551C739.315 229.971 736.413 227.068 732.832 227.068C729.251 227.068 726.348 229.971 726.348 233.551C726.348 237.132 729.251 240.035 732.832 240.035Z" fill="#0C4A6E"/>
<path d="M525.308 240.035C528.889 240.035 531.792 237.132 531.792 233.551C531.792 229.97 528.889 227.067 525.308 227.067C521.727 227.067 518.824 229.97 518.824 233.551C518.824 237.132 521.727 240.035 525.308 240.035Z" fill="#0C4A6E"/>
<path d="M629.076 240.035C632.657 240.035 635.56 237.132 635.56 233.551C635.56 229.971 632.657 227.068 629.076 227.068C625.495 227.068 622.592 229.971 622.592 233.551C622.592 237.132 625.495 240.035 629.076 240.035Z" fill="#0C4A6E"/>
<path d="M58.3726 296.797C61.9535 296.797 64.8565 293.894 64.8565 290.313C64.8565 286.732 61.9535 283.829 58.3726 283.829C54.7916 283.829 51.8887 286.732 51.8887 290.313C51.8887 293.894 54.7916 296.797 58.3726 296.797Z" fill="#0C4A6E"/>
<path d="M888.496 296.797C892.077 296.797 894.98 293.894 894.98 290.313C894.98 286.732 892.077 283.829 888.496 283.829C884.915 283.829 882.012 286.732 882.012 290.313C882.012 293.894 884.915 296.797 888.496 296.797Z" fill="#0C4A6E"/>
<path d="M473.435 296.818C477.028 296.818 479.941 293.905 479.941 290.312C479.941 286.719 477.028 283.807 473.435 283.807C469.842 283.807 466.93 286.719 466.93 290.312C466.93 293.905 469.842 296.818 473.435 296.818Z" fill="#0C4A6E"/>
<path d="M265.908 296.797C269.489 296.797 272.392 293.894 272.392 290.313C272.392 286.732 269.489 283.829 265.908 283.829C262.327 283.829 259.424 286.732 259.424 290.313C259.424 293.894 262.327 296.797 265.908 296.797Z" fill="#0C4A6E"/>
<path d="M369.669 296.797C373.25 296.797 376.153 293.894 376.153 290.313C376.153 286.732 373.25 283.829 369.669 283.829C366.088 283.829 363.186 286.732 363.186 290.313C363.186 293.894 366.088 296.797 369.669 296.797Z" fill="#0C4A6E"/>
<path d="M162.138 296.797C165.719 296.797 168.622 293.894 168.622 290.313C168.622 286.732 165.719 283.829 162.138 283.829C158.557 283.829 155.654 286.732 155.654 290.313C155.654 293.894 158.557 296.797 162.138 296.797Z" fill="#0C4A6E"/>
<path d="M784.726 296.797C788.307 296.797 791.21 293.894 791.21 290.313C791.21 286.732 788.307 283.829 784.726 283.829C781.145 283.829 778.242 286.732 778.242 290.313C778.242 293.894 781.145 296.797 784.726 296.797Z" fill="#0C4A6E"/>
<path d="M577.203 296.818C580.796 296.818 583.709 293.905 583.709 290.312C583.709 286.719 580.796 283.807 577.203 283.807C573.61 283.807 570.697 286.719 570.697 290.312C570.697 293.905 573.61 296.818 577.203 296.818Z" fill="#0C4A6E"/>
<path d="M680.962 296.797C684.543 296.797 687.446 293.894 687.446 290.313C687.446 286.732 684.543 283.829 680.962 283.829C677.381 283.829 674.479 286.732 674.479 290.313C674.479 293.894 677.381 296.797 680.962 296.797Z" fill="#0C4A6E"/>
<path d="M6.49954 296.797C10.0805 296.797 12.9835 293.894 12.9835 290.313C12.9835 286.732 10.0805 283.829 6.49954 283.829C2.91857 283.829 0.015625 286.732 0.015625 290.313C0.015625 293.894 2.91857 296.797 6.49954 296.797Z" fill="#0C4A6E"/>
<path d="M836.601 296.797C840.182 296.797 843.085 293.894 843.085 290.313C843.085 286.732 840.182 283.829 836.601 283.829C833.02 283.829 830.117 286.732 830.117 290.313C830.117 293.894 833.02 296.797 836.601 296.797Z" fill="#0C4A6E"/>
<path d="M421.537 296.797C425.118 296.797 428.021 293.894 428.021 290.313C428.021 286.732 425.118 283.829 421.537 283.829C417.956 283.829 415.053 286.732 415.053 290.313C415.053 293.894 417.956 296.797 421.537 296.797Z" fill="#0C4A6E"/>
<path d="M214.019 296.797C217.6 296.797 220.503 293.894 220.503 290.313C220.503 286.732 217.6 283.829 214.019 283.829C210.438 283.829 207.535 286.732 207.535 290.313C207.535 293.894 210.438 296.797 214.019 296.797Z" fill="#0C4A6E"/>
<path d="M317.769 296.797C321.35 296.797 324.253 293.894 324.253 290.313C324.253 286.732 321.35 283.829 317.769 283.829C314.188 283.829 311.285 286.732 311.285 290.313C311.285 293.894 314.188 296.797 317.769 296.797Z" fill="#0C4A6E"/>
<path d="M110.253 296.797C113.834 296.797 116.737 293.894 116.737 290.313C116.737 286.732 113.834 283.829 110.253 283.829C106.672 283.829 103.77 286.732 103.77 290.313C103.77 293.894 106.672 296.797 110.253 296.797Z" fill="#0C4A6E"/>
<path d="M732.832 296.797C736.413 296.797 739.315 293.894 739.315 290.313C739.315 286.732 736.413 283.829 732.832 283.829C729.251 283.829 726.348 286.732 726.348 290.313C726.348 293.894 729.251 296.797 732.832 296.797Z" fill="#0C4A6E"/>
<path d="M525.308 296.797C528.889 296.797 531.792 293.894 531.792 290.313C531.792 286.732 528.889 283.829 525.308 283.829C521.727 283.829 518.824 286.732 518.824 290.313C518.824 293.894 521.727 296.797 525.308 296.797Z" fill="#0C4A6E"/>
<path d="M629.076 296.797C632.657 296.797 635.56 293.894 635.56 290.313C635.56 286.732 632.657 283.829 629.076 283.829C625.495 283.829 622.592 286.732 622.592 290.313C622.592 293.894 625.495 296.797 629.076 296.797Z" fill="#0C4A6E"/>
<path d="M58.3726 353.56C61.9535 353.56 64.8565 350.656 64.8565 347.076C64.8565 343.495 61.9535 340.592 58.3726 340.592C54.7916 340.592 51.8887 343.495 51.8887 347.076C51.8887 350.656 54.7916 353.56 58.3726 353.56Z" fill="#0C4A6E"/>
<path d="M888.496 353.56C892.077 353.56 894.98 350.656 894.98 347.076C894.98 343.495 892.077 340.592 888.496 340.592C884.915 340.592 882.012 343.495 882.012 347.076C882.012 350.656 884.915 353.56 888.496 353.56Z" fill="#0C4A6E"/>
<path d="M473.435 353.584C477.028 353.584 479.941 350.671 479.941 347.078C479.941 343.485 477.028 340.572 473.435 340.572C469.842 340.572 466.93 343.485 466.93 347.078C466.93 350.671 469.842 353.584 473.435 353.584Z" fill="#0C4A6E"/>
<path d="M265.908 353.56C269.489 353.56 272.392 350.656 272.392 347.076C272.392 343.495 269.489 340.592 265.908 340.592C262.327 340.592 259.424 343.495 259.424 347.076C259.424 350.656 262.327 353.56 265.908 353.56Z" fill="#0C4A6E"/>
<path d="M369.669 353.56C373.25 353.56 376.153 350.656 376.153 347.076C376.153 343.495 373.25 340.592 369.669 340.592C366.088 340.592 363.186 343.495 363.186 347.076C363.186 350.656 366.088 353.56 369.669 353.56Z" fill="#0C4A6E"/>
<path d="M162.138 353.56C165.719 353.56 168.622 350.656 168.622 347.076C168.622 343.495 165.719 340.592 162.138 340.592C158.557 340.592 155.654 343.495 155.654 347.076C155.654 350.656 158.557 353.56 162.138 353.56Z" fill="#0C4A6E"/>
<path d="M784.726 353.56C788.307 353.56 791.21 350.656 791.21 347.076C791.21 343.495 788.307 340.592 784.726 340.592C781.145 340.592 778.242 343.495 778.242 347.076C778.242 350.656 781.145 353.56 784.726 353.56Z" fill="#0C4A6E"/>
<path d="M577.203 353.584C580.796 353.584 583.709 350.671 583.709 347.078C583.709 343.485 580.796 340.572 577.203 340.572C573.61 340.572 570.697 343.485 570.697 347.078C570.697 350.671 573.61 353.584 577.203 353.584Z" fill="#0C4A6E"/>
<path d="M680.962 353.56C684.543 353.56 687.446 350.656 687.446 347.076C687.446 343.495 684.543 340.592 680.962 340.592C677.381 340.592 674.479 343.495 674.479 347.076C674.479 350.656 677.381 353.56 680.962 353.56Z" fill="#0C4A6E"/>
<path d="M6.49954 353.56C10.0805 353.56 12.9835 350.656 12.9835 347.076C12.9835 343.495 10.0805 340.592 6.49954 340.592C2.91857 340.592 0.015625 343.495 0.015625 347.076C0.015625 350.656 2.91857 353.56 6.49954 353.56Z" fill="#0C4A6E"/>
<path d="M836.601 353.56C840.182 353.56 843.085 350.656 843.085 347.076C843.085 343.495 840.182 340.592 836.601 340.592C833.02 340.592 830.117 343.495 830.117 347.076C830.117 350.656 833.02 353.56 836.601 353.56Z" fill="#0C4A6E"/>
<path d="M421.537 353.56C425.118 353.56 428.021 350.656 428.021 347.076C428.021 343.495 425.118 340.592 421.537 340.592C417.956 340.592 415.053 343.495 415.053 347.076C415.053 350.656 417.956 353.56 421.537 353.56Z" fill="#0C4A6E"/>
<path d="M214.019 353.56C217.6 353.56 220.503 350.656 220.503 347.076C220.503 343.495 217.6 340.592 214.019 340.592C210.438 340.592 207.535 343.495 207.535 347.076C207.535 350.656 210.438 353.56 214.019 353.56Z" fill="#0C4A6E"/>
<path d="M317.769 353.56C321.35 353.56 324.253 350.656 324.253 347.076C324.253 343.495 321.35 340.592 317.769 340.592C314.188 340.592 311.285 343.495 311.285 347.076C311.285 350.656 314.188 353.56 317.769 353.56Z" fill="#0C4A6E"/>
<path d="M110.253 353.56C113.834 353.56 116.737 350.656 116.737 347.076C116.737 343.495 113.834 340.592 110.253 340.592C106.672 340.592 103.77 343.495 103.77 347.076C103.77 350.656 106.672 353.56 110.253 353.56Z" fill="#0C4A6E"/>
<path d="M732.832 353.56C736.413 353.56 739.315 350.656 739.315 347.076C739.315 343.495 736.413 340.592 732.832 340.592C729.251 340.592 726.348 343.495 726.348 347.076C726.348 350.656 729.251 353.56 732.832 353.56Z" fill="#0C4A6E"/>
<path d="M525.308 353.56C528.889 353.56 531.792 350.656 531.792 347.076C531.792 343.495 528.889 340.592 525.308 340.592C521.727 340.592 518.824 343.495 518.824 347.076C518.824 350.656 521.727 353.56 525.308 353.56Z" fill="#0C4A6E"/>
<path d="M629.076 353.56C632.657 353.56 635.56 350.656 635.56 347.076C635.56 343.495 632.657 340.592 629.076 340.592C625.495 340.592 622.592 343.495 622.592 347.076C622.592 350.656 625.495 353.56 629.076 353.56Z" fill="#0C4A6E"/>
<path d="M58.3726 410.317C61.9535 410.317 64.8565 407.414 64.8565 403.833C64.8565 400.252 61.9535 397.349 58.3726 397.349C54.7916 397.349 51.8887 400.252 51.8887 403.833C51.8887 407.414 54.7916 410.317 58.3726 410.317Z" fill="#0C4A6E"/>
<path d="M888.496 410.318C892.077 410.318 894.98 407.414 894.98 403.834C894.98 400.253 892.077 397.35 888.496 397.35C884.915 397.35 882.012 400.253 882.012 403.834C882.012 407.414 884.915 410.318 888.496 410.318Z" fill="#0C4A6E"/>
<path d="M473.435 410.344C477.028 410.344 479.941 407.431 479.941 403.838C479.941 400.245 477.028 397.333 473.435 397.333C469.842 397.333 466.93 400.245 466.93 403.838C466.93 407.431 469.842 410.344 473.435 410.344Z" fill="#0C4A6E"/>
<path d="M265.908 410.318C269.489 410.318 272.392 407.414 272.392 403.834C272.392 400.253 269.489 397.35 265.908 397.35C262.327 397.35 259.424 400.253 259.424 403.834C259.424 407.414 262.327 410.318 265.908 410.318Z" fill="#0C4A6E"/>
<path d="M369.669 410.318C373.25 410.318 376.153 407.414 376.153 403.834C376.153 400.253 373.25 397.35 369.669 397.35C366.088 397.35 363.186 400.253 363.186 403.834C363.186 407.414 366.088 410.318 369.669 410.318Z" fill="#0C4A6E"/>
<path d="M162.138 410.318C165.719 410.318 168.622 407.414 168.622 403.834C168.622 400.253 165.719 397.35 162.138 397.35C158.557 397.35 155.654 400.253 155.654 403.834C155.654 407.414 158.557 410.318 162.138 410.318Z" fill="#0C4A6E"/>
<path d="M784.726 410.318C788.307 410.318 791.21 407.414 791.21 403.834C791.21 400.253 788.307 397.35 784.726 397.35C781.145 397.35 778.242 400.253 778.242 403.834C778.242 407.414 781.145 410.318 784.726 410.318Z" fill="#0C4A6E"/>
<path d="M577.203 410.344C580.796 410.344 583.709 407.431 583.709 403.838C583.709 400.245 580.796 397.333 577.203 397.333C573.61 397.333 570.697 400.245 570.697 403.838C570.697 407.431 573.61 410.344 577.203 410.344Z" fill="#0C4A6E"/>
<path d="M680.962 410.318C684.543 410.318 687.446 407.414 687.446 403.834C687.446 400.253 684.543 397.35 680.962 397.35C677.381 397.35 674.479 400.253 674.479 403.834C674.479 407.414 677.381 410.318 680.962 410.318Z" fill="#0C4A6E"/>
<path d="M6.49954 410.318C10.0805 410.318 12.9835 407.414 12.9835 403.834C12.9835 400.253 10.0805 397.35 6.49954 397.35C2.91857 397.35 0.015625 400.253 0.015625 403.834C0.015625 407.414 2.91857 410.318 6.49954 410.318Z" fill="#0C4A6E"/>
<path d="M836.601 410.318C840.182 410.318 843.085 407.414 843.085 403.834C843.085 400.253 840.182 397.35 836.601 397.35C833.02 397.35 830.117 400.253 830.117 403.834C830.117 407.414 833.02 410.318 836.601 410.318Z" fill="#0C4A6E"/>
<path d="M421.537 410.317C425.118 410.317 428.021 407.414 428.021 403.833C428.021 400.252 425.118 397.349 421.537 397.349C417.956 397.349 415.053 400.252 415.053 403.833C415.053 407.414 417.956 410.317 421.537 410.317Z" fill="#0C4A6E"/>
<path d="M214.019 410.318C217.6 410.318 220.503 407.414 220.503 403.834C220.503 400.253 217.6 397.35 214.019 397.35C210.438 397.35 207.535 400.253 207.535 403.834C207.535 407.414 210.438 410.318 214.019 410.318Z" fill="#0C4A6E"/>
<path d="M317.769 410.318C321.35 410.318 324.253 407.414 324.253 403.834C324.253 400.253 321.35 397.35 317.769 397.35C314.188 397.35 311.285 400.253 311.285 403.834C311.285 407.414 314.188 410.318 317.769 410.318Z" fill="#0C4A6E"/>
<path d="M110.253 410.318C113.834 410.318 116.737 407.414 116.737 403.834C116.737 400.253 113.834 397.35 110.253 397.35C106.672 397.35 103.77 400.253 103.77 403.834C103.77 407.414 106.672 410.318 110.253 410.318Z" fill="#0C4A6E"/>
<path d="M732.832 410.318C736.413 410.318 739.315 407.414 739.315 403.834C739.315 400.253 736.413 397.35 732.832 397.35C729.251 397.35 726.348 400.253 726.348 403.834C726.348 407.414 729.251 410.318 732.832 410.318Z" fill="#0C4A6E"/>
<path d="M525.308 410.317C528.889 410.317 531.792 407.414 531.792 403.833C531.792 400.252 528.889 397.349 525.308 397.349C521.727 397.349 518.824 400.252 518.824 403.833C518.824 407.414 521.727 410.317 525.308 410.317Z" fill="#0C4A6E"/>
<path d="M629.076 410.318C632.657 410.318 635.56 407.414 635.56 403.834C635.56 400.253 632.657 397.35 629.076 397.35C625.495 397.35 622.592 400.253 622.592 403.834C622.592 407.414 625.495 410.318 629.076 410.318Z" fill="#0C4A6E"/>
<path d="M58.3726 467.082C61.9535 467.082 64.8565 464.179 64.8565 460.598C64.8565 457.018 61.9535 454.115 58.3726 454.115C54.7916 454.115 51.8887 457.018 51.8887 460.598C51.8887 464.179 54.7916 467.082 58.3726 467.082Z" fill="#0C4A6E"/>
<path d="M888.496 467.082C892.077 467.082 894.98 464.179 894.98 460.598C894.98 457.017 892.077 454.114 888.496 454.114C884.915 454.114 882.012 457.017 882.012 460.598C882.012 464.179 884.915 467.082 888.496 467.082Z" fill="#0C4A6E"/>
<path d="M473.435 467.101C477.028 467.101 479.941 464.188 479.941 460.595C479.941 457.002 477.028 454.089 473.435 454.089C469.842 454.089 466.93 457.002 466.93 460.595C466.93 464.188 469.842 467.101 473.435 467.101Z" fill="#0C4A6E"/>
<path d="M265.908 467.082C269.489 467.082 272.392 464.179 272.392 460.598C272.392 457.017 269.489 454.114 265.908 454.114C262.327 454.114 259.424 457.017 259.424 460.598C259.424 464.179 262.327 467.082 265.908 467.082Z" fill="#0C4A6E"/>
<path d="M369.669 467.082C373.25 467.082 376.153 464.179 376.153 460.598C376.153 457.017 373.25 454.114 369.669 454.114C366.088 454.114 363.186 457.017 363.186 460.598C363.186 464.179 366.088 467.082 369.669 467.082Z" fill="#0C4A6E"/>
<path d="M162.138 467.082C165.719 467.082 168.622 464.179 168.622 460.598C168.622 457.017 165.719 454.114 162.138 454.114C158.557 454.114 155.654 457.017 155.654 460.598C155.654 464.179 158.557 467.082 162.138 467.082Z" fill="#0C4A6E"/>
<path d="M784.726 467.082C788.307 467.082 791.21 464.179 791.21 460.598C791.21 457.017 788.307 454.114 784.726 454.114C781.145 454.114 778.242 457.017 778.242 460.598C778.242 464.179 781.145 467.082 784.726 467.082Z" fill="#0C4A6E"/>
<path d="M577.203 467.101C580.796 467.101 583.709 464.188 583.709 460.595C583.709 457.002 580.796 454.089 577.203 454.089C573.61 454.089 570.697 457.002 570.697 460.595C570.697 464.188 573.61 467.101 577.203 467.101Z" fill="#0C4A6E"/>
<path d="M680.962 467.082C684.543 467.082 687.446 464.179 687.446 460.598C687.446 457.017 684.543 454.114 680.962 454.114C677.381 454.114 674.479 457.017 674.479 460.598C674.479 464.179 677.381 467.082 680.962 467.082Z" fill="#0C4A6E"/>
<path d="M6.49954 467.082C10.0805 467.082 12.9835 464.179 12.9835 460.598C12.9835 457.017 10.0805 454.114 6.49954 454.114C2.91857 454.114 0.015625 457.017 0.015625 460.598C0.015625 464.179 2.91857 467.082 6.49954 467.082Z" fill="#0C4A6E"/>
<path d="M836.601 467.082C840.182 467.082 843.085 464.179 843.085 460.598C843.085 457.017 840.182 454.114 836.601 454.114C833.02 454.114 830.117 457.017 830.117 460.598C830.117 464.179 833.02 467.082 836.601 467.082Z" fill="#0C4A6E"/>
<path d="M421.537 467.082C425.118 467.082 428.021 464.179 428.021 460.598C428.021 457.018 425.118 454.115 421.537 454.115C417.956 454.115 415.053 457.018 415.053 460.598C415.053 464.179 417.956 467.082 421.537 467.082Z" fill="#0C4A6E"/>
<path d="M214.019 467.082C217.6 467.082 220.503 464.179 220.503 460.598C220.503 457.017 217.6 454.114 214.019 454.114C210.438 454.114 207.535 457.017 207.535 460.598C207.535 464.179 210.438 467.082 214.019 467.082Z" fill="#0C4A6E"/>
<path d="M317.769 467.082C321.35 467.082 324.253 464.179 324.253 460.598C324.253 457.017 321.35 454.114 317.769 454.114C314.188 454.114 311.285 457.017 311.285 460.598C311.285 464.179 314.188 467.082 317.769 467.082Z" fill="#0C4A6E"/>
<path d="M110.253 467.082C113.834 467.082 116.737 464.179 116.737 460.598C116.737 457.017 113.834 454.114 110.253 454.114C106.672 454.114 103.77 457.017 103.77 460.598C103.77 464.179 106.672 467.082 110.253 467.082Z" fill="#0C4A6E"/>
<path d="M732.832 467.082C736.413 467.082 739.315 464.179 739.315 460.598C739.315 457.017 736.413 454.114 732.832 454.114C729.251 454.114 726.348 457.017 726.348 460.598C726.348 464.179 729.251 467.082 732.832 467.082Z" fill="#0C4A6E"/>
<path d="M525.308 467.082C528.889 467.082 531.792 464.179 531.792 460.598C531.792 457.018 528.889 454.115 525.308 454.115C521.727 454.115 518.824 457.018 518.824 460.598C518.824 464.179 521.727 467.082 525.308 467.082Z" fill="#0C4A6E"/>
<path d="M629.076 467.082C632.657 467.082 635.56 464.179 635.56 460.598C635.56 457.017 632.657 454.114 629.076 454.114C625.495 454.114 622.592 457.017 622.592 460.598C622.592 464.179 625.495 467.082 629.076 467.082Z" fill="#0C4A6E"/>
<path d="M58.3726 523.843C61.9535 523.843 64.8565 520.94 64.8565 517.359C64.8565 513.778 61.9535 510.875 58.3726 510.875C54.7916 510.875 51.8887 513.778 51.8887 517.359C51.8887 520.94 54.7916 523.843 58.3726 523.843Z" fill="#0C4A6E"/>
<path d="M888.496 523.843C892.077 523.843 894.98 520.94 894.98 517.359C894.98 513.778 892.077 510.875 888.496 510.875C884.915 510.875 882.012 513.778 882.012 517.359C882.012 520.94 884.915 523.843 888.496 523.843Z" fill="#0C4A6E"/>
<path d="M473.435 523.866C477.028 523.866 479.941 520.954 479.941 517.361C479.941 513.768 477.028 510.855 473.435 510.855C469.842 510.855 466.93 513.768 466.93 517.361C466.93 520.954 469.842 523.866 473.435 523.866Z" fill="#0C4A6E"/>
<path d="M265.908 523.843C269.489 523.843 272.392 520.94 272.392 517.359C272.392 513.778 269.489 510.875 265.908 510.875C262.327 510.875 259.424 513.778 259.424 517.359C259.424 520.94 262.327 523.843 265.908 523.843Z" fill="#0C4A6E"/>
<path d="M369.669 523.843C373.25 523.843 376.153 520.94 376.153 517.359C376.153 513.778 373.25 510.875 369.669 510.875C366.088 510.875 363.186 513.778 363.186 517.359C363.186 520.94 366.088 523.843 369.669 523.843Z" fill="#0C4A6E"/>
<path d="M162.138 523.843C165.719 523.843 168.622 520.94 168.622 517.359C168.622 513.778 165.719 510.875 162.138 510.875C158.557 510.875 155.654 513.778 155.654 517.359C155.654 520.94 158.557 523.843 162.138 523.843Z" fill="#0C4A6E"/>
<path d="M784.726 523.843C788.307 523.843 791.21 520.94 791.21 517.359C791.21 513.778 788.307 510.875 784.726 510.875C781.145 510.875 778.242 513.778 778.242 517.359C778.242 520.94 781.145 523.843 784.726 523.843Z" fill="#0C4A6E"/>
<path d="M577.203 523.866C580.796 523.866 583.709 520.954 583.709 517.361C583.709 513.768 580.796 510.855 577.203 510.855C573.61 510.855 570.697 513.768 570.697 517.361C570.697 520.954 573.61 523.866 577.203 523.866Z" fill="#0C4A6E"/>
<path d="M680.962 523.843C684.543 523.843 687.446 520.94 687.446 517.359C687.446 513.778 684.543 510.875 680.962 510.875C677.381 510.875 674.479 513.778 674.479 517.359C674.479 520.94 677.381 523.843 680.962 523.843Z" fill="#0C4A6E"/>
<path d="M6.49954 523.843C10.0805 523.843 12.9835 520.94 12.9835 517.359C12.9835 513.778 10.0805 510.875 6.49954 510.875C2.91857 510.875 0.015625 513.778 0.015625 517.359C0.015625 520.94 2.91857 523.843 6.49954 523.843Z" fill="#0C4A6E"/>
<path d="M836.601 523.843C840.182 523.843 843.085 520.94 843.085 517.359C843.085 513.778 840.182 510.875 836.601 510.875C833.02 510.875 830.117 513.778 830.117 517.359C830.117 520.94 833.02 523.843 836.601 523.843Z" fill="#0C4A6E"/>
<path d="M421.537 523.843C425.118 523.843 428.021 520.94 428.021 517.359C428.021 513.778 425.118 510.875 421.537 510.875C417.956 510.875 415.053 513.778 415.053 517.359C415.053 520.94 417.956 523.843 421.537 523.843Z" fill="#0C4A6E"/>
<path d="M214.019 523.843C217.6 523.843 220.503 520.94 220.503 517.359C220.503 513.778 217.6 510.875 214.019 510.875C210.438 510.875 207.535 513.778 207.535 517.359C207.535 520.94 210.438 523.843 214.019 523.843Z" fill="#0C4A6E"/>
<path d="M317.769 523.843C321.35 523.843 324.253 520.94 324.253 517.359C324.253 513.778 321.35 510.875 317.769 510.875C314.188 510.875 311.285 513.778 311.285 517.359C311.285 520.94 314.188 523.843 317.769 523.843Z" fill="#0C4A6E"/>
<path d="M110.253 523.843C113.834 523.843 116.737 520.94 116.737 517.359C116.737 513.778 113.834 510.875 110.253 510.875C106.672 510.875 103.77 513.778 103.77 517.359C103.77 520.94 106.672 523.843 110.253 523.843Z" fill="#0C4A6E"/>
<path d="M732.832 523.843C736.413 523.843 739.315 520.94 739.315 517.359C739.315 513.778 736.413 510.875 732.832 510.875C729.251 510.875 726.348 513.778 726.348 517.359C726.348 520.94 729.251 523.843 732.832 523.843Z" fill="#0C4A6E"/>
<path d="M525.308 523.843C528.889 523.843 531.792 520.94 531.792 517.359C531.792 513.778 528.889 510.875 525.308 510.875C521.727 510.875 518.824 513.778 518.824 517.359C518.824 520.94 521.727 523.843 525.308 523.843Z" fill="#0C4A6E"/>
<path d="M629.076 523.843C632.657 523.843 635.56 520.94 635.56 517.359C635.56 513.778 632.657 510.875 629.076 510.875C625.495 510.875 622.592 513.778 622.592 517.359C622.592 520.94 625.495 523.843 629.076 523.843Z" fill="#0C4A6E"/>
<path d="M58.3726 580.605C61.9535 580.605 64.8565 577.702 64.8565 574.121C64.8565 570.54 61.9535 567.637 58.3726 567.637C54.7916 567.637 51.8887 570.54 51.8887 574.121C51.8887 577.702 54.7916 580.605 58.3726 580.605Z" fill="#0C4A6E"/>
<path d="M888.496 580.605C892.077 580.605 894.98 577.702 894.98 574.121C894.98 570.54 892.077 567.637 888.496 567.637C884.915 567.637 882.012 570.54 882.012 574.121C882.012 577.702 884.915 580.605 888.496 580.605Z" fill="#0C4A6E"/>
<path d="M473.435 580.627C477.028 580.627 479.941 577.714 479.941 574.121C479.941 570.528 477.028 567.615 473.435 567.615C469.842 567.615 466.93 570.528 466.93 574.121C466.93 577.714 469.842 580.627 473.435 580.627Z" fill="#0C4A6E"/>
<path d="M265.908 580.605C269.489 580.605 272.392 577.702 272.392 574.121C272.392 570.54 269.489 567.637 265.908 567.637C262.327 567.637 259.424 570.54 259.424 574.121C259.424 577.702 262.327 580.605 265.908 580.605Z" fill="#0C4A6E"/>
<path d="M369.669 580.605C373.25 580.605 376.153 577.702 376.153 574.121C376.153 570.54 373.25 567.637 369.669 567.637C366.088 567.637 363.186 570.54 363.186 574.121C363.186 577.702 366.088 580.605 369.669 580.605Z" fill="#0C4A6E"/>
<path d="M162.138 580.605C165.719 580.605 168.622 577.702 168.622 574.121C168.622 570.54 165.719 567.637 162.138 567.637C158.557 567.637 155.654 570.54 155.654 574.121C155.654 577.702 158.557 580.605 162.138 580.605Z" fill="#0C4A6E"/>
<path d="M784.726 580.605C788.307 580.605 791.21 577.702 791.21 574.121C791.21 570.54 788.307 567.637 784.726 567.637C781.145 567.637 778.242 570.54 778.242 574.121C778.242 577.702 781.145 580.605 784.726 580.605Z" fill="#0C4A6E"/>
<path d="M577.203 580.627C580.796 580.627 583.709 577.714 583.709 574.121C583.709 570.528 580.796 567.615 577.203 567.615C573.61 567.615 570.697 570.528 570.697 574.121C570.697 577.714 573.61 580.627 577.203 580.627Z" fill="#0C4A6E"/>
<path d="M680.962 580.605C684.543 580.605 687.446 577.702 687.446 574.121C687.446 570.54 684.543 567.637 680.962 567.637C677.381 567.637 674.479 570.54 674.479 574.121C674.479 577.702 677.381 580.605 680.962 580.605Z" fill="#0C4A6E"/>
<path d="M6.49954 580.605C10.0805 580.605 12.9835 577.702 12.9835 574.121C12.9835 570.54 10.0805 567.637 6.49954 567.637C2.91857 567.637 0.015625 570.54 0.015625 574.121C0.015625 577.702 2.91857 580.605 6.49954 580.605Z" fill="#0C4A6E"/>
<path d="M836.601 580.605C840.182 580.605 843.085 577.702 843.085 574.121C843.085 570.54 840.182 567.637 836.601 567.637C833.02 567.637 830.117 570.54 830.117 574.121C830.117 577.702 833.02 580.605 836.601 580.605Z" fill="#0C4A6E"/>
<path d="M421.537 580.605C425.118 580.605 428.021 577.702 428.021 574.121C428.021 570.54 425.118 567.637 421.537 567.637C417.956 567.637 415.053 570.54 415.053 574.121C415.053 577.702 417.956 580.605 421.537 580.605Z" fill="#0C4A6E"/>
<path d="M214.019 580.605C217.6 580.605 220.503 577.702 220.503 574.121C220.503 570.54 217.6 567.637 214.019 567.637C210.438 567.637 207.535 570.54 207.535 574.121C207.535 577.702 210.438 580.605 214.019 580.605Z" fill="#0C4A6E"/>
<path d="M317.769 580.605C321.35 580.605 324.253 577.702 324.253 574.121C324.253 570.54 321.35 567.637 317.769 567.637C314.188 567.637 311.285 570.54 311.285 574.121C311.285 577.702 314.188 580.605 317.769 580.605Z" fill="#0C4A6E"/>
<path d="M110.253 580.605C113.834 580.605 116.737 577.702 116.737 574.121C116.737 570.54 113.834 567.637 110.253 567.637C106.672 567.637 103.77 570.54 103.77 574.121C103.77 577.702 106.672 580.605 110.253 580.605Z" fill="#0C4A6E"/>
<path d="M732.832 580.605C736.413 580.605 739.315 577.702 739.315 574.121C739.315 570.54 736.413 567.637 732.832 567.637C729.251 567.637 726.348 570.54 726.348 574.121C726.348 577.702 729.251 580.605 732.832 580.605Z" fill="#0C4A6E"/>
<path d="M525.308 580.605C528.889 580.605 531.792 577.702 531.792 574.121C531.792 570.54 528.889 567.637 525.308 567.637C521.727 567.637 518.824 570.54 518.824 574.121C518.824 577.702 521.727 580.605 525.308 580.605Z" fill="#0C4A6E"/>
<path d="M629.076 580.605C632.657 580.605 635.56 577.702 635.56 574.121C635.56 570.54 632.657 567.637 629.076 567.637C625.495 567.637 622.592 570.54 622.592 574.121C622.592 577.702 625.495 580.605 629.076 580.605Z" fill="#0C4A6E"/>
<path d="M58.3726 637.365C61.9535 637.365 64.8565 634.462 64.8565 630.881C64.8565 627.3 61.9535 624.397 58.3726 624.397C54.7916 624.397 51.8887 627.3 51.8887 630.881C51.8887 634.462 54.7916 637.365 58.3726 637.365Z" fill="#0C4A6E"/>
<path d="M888.494 637.392C892.087 637.392 895 634.479 895 630.886C895 627.293 892.087 624.381 888.494 624.381C884.901 624.381 881.988 627.293 881.988 630.886C881.988 634.479 884.901 637.392 888.494 637.392Z" fill="#0C4A6E"/>
<path d="M473.435 637.392C477.028 637.392 479.941 634.479 479.941 630.886C479.941 627.293 477.028 624.381 473.435 624.381C469.842 624.381 466.93 627.293 466.93 630.886C466.93 634.479 469.842 637.392 473.435 637.392Z" fill="#0C4A6E"/>
<path d="M265.908 637.364C269.489 637.364 272.392 634.461 272.392 630.88C272.392 627.299 269.489 624.396 265.908 624.396C262.327 624.396 259.424 627.299 259.424 630.88C259.424 634.461 262.327 637.364 265.908 637.364Z" fill="#0C4A6E"/>
<path d="M369.674 637.392C373.267 637.392 376.179 634.479 376.179 630.886C376.179 627.293 373.267 624.38 369.674 624.38C366.081 624.38 363.168 627.293 363.168 630.886C363.168 634.479 366.081 637.392 369.674 637.392Z" fill="#0C4A6E"/>
<path d="M162.138 637.364C165.719 637.364 168.622 634.461 168.622 630.88C168.622 627.299 165.719 624.396 162.138 624.396C158.557 624.396 155.654 627.299 155.654 630.88C155.654 634.461 158.557 637.364 162.138 637.364Z" fill="#0C4A6E"/>
<path d="M784.728 637.392C788.321 637.392 791.234 634.479 791.234 630.886C791.234 627.293 788.321 624.38 784.728 624.38C781.135 624.38 778.223 627.293 778.223 630.886C778.223 634.479 781.135 637.392 784.728 637.392Z" fill="#0C4A6E"/>
<path d="M577.203 637.392C580.796 637.392 583.709 634.479 583.709 630.886C583.709 627.293 580.796 624.381 577.203 624.381C573.61 624.381 570.697 627.293 570.697 630.886C570.697 634.479 573.61 637.392 577.203 637.392Z" fill="#0C4A6E"/>
<path d="M680.963 637.392C684.556 637.392 687.469 634.479 687.469 630.886C687.469 627.293 684.556 624.381 680.963 624.381C677.37 624.381 674.457 627.293 674.457 630.886C674.457 634.479 677.37 637.392 680.963 637.392Z" fill="#0C4A6E"/>
<path d="M6.50574 637.392C10.0988 637.392 13.0115 634.479 13.0115 630.886C13.0115 627.293 10.0988 624.38 6.50574 624.38C2.91272 624.38 0 627.293 0 630.886C0 634.479 2.91272 637.392 6.50574 637.392Z" fill="#0C4A6E"/>
<path d="M836.605 637.392C840.198 637.392 843.111 634.479 843.111 630.886C843.111 627.293 840.198 624.381 836.605 624.381C833.012 624.381 830.1 627.293 830.1 630.886C830.1 634.479 833.012 637.392 836.605 637.392Z" fill="#0C4A6E"/>
<path d="M421.547 637.392C425.14 637.392 428.053 634.479 428.053 630.886C428.053 627.293 425.14 624.381 421.547 624.381C417.954 624.381 415.041 627.293 415.041 630.886C415.041 634.479 417.954 637.392 421.547 637.392Z" fill="#0C4A6E"/>
<path d="M214.019 637.364C217.6 637.364 220.503 634.461 220.503 630.88C220.503 627.299 217.6 624.396 214.019 624.396C210.438 624.396 207.535 627.299 207.535 630.88C207.535 634.461 210.438 637.364 214.019 637.364Z" fill="#0C4A6E"/>
<path d="M317.769 637.364C321.35 637.364 324.253 634.461 324.253 630.88C324.253 627.299 321.35 624.396 317.769 624.396C314.188 624.396 311.285 627.299 311.285 630.88C311.285 634.461 314.188 637.364 317.769 637.364Z" fill="#0C4A6E"/>
<path d="M110.242 637.392C113.835 637.392 116.748 634.479 116.748 630.886C116.748 627.293 113.835 624.381 110.242 624.381C106.649 624.381 103.736 627.293 103.736 630.886C103.736 634.479 106.649 637.392 110.242 637.392Z" fill="#0C4A6E"/>
<path d="M732.834 637.392C736.427 637.392 739.34 634.479 739.34 630.886C739.34 627.293 736.427 624.38 732.834 624.38C729.241 624.38 726.328 627.293 726.328 630.886C726.328 634.479 729.241 637.392 732.834 637.392Z" fill="#0C4A6E"/>
<path d="M525.309 637.392C528.902 637.392 531.814 634.479 531.814 630.886C531.814 627.293 528.902 624.381 525.309 624.381C521.715 624.381 518.803 627.293 518.803 630.886C518.803 634.479 521.715 637.392 525.309 637.392Z" fill="#0C4A6E"/>
<path d="M629.064 637.392C632.657 637.392 635.57 634.479 635.57 630.886C635.57 627.293 632.657 624.381 629.064 624.381C625.471 624.381 622.559 627.293 622.559 630.886C622.559 634.479 625.471 637.392 629.064 637.392Z" fill="#0C4A6E"/>
<path d="M58.3726 694.13C61.9535 694.13 64.8565 691.227 64.8565 687.646C64.8565 684.065 61.9535 681.162 58.3726 681.162C54.7916 681.162 51.8887 684.065 51.8887 687.646C51.8887 691.227 54.7916 694.13 58.3726 694.13Z" fill="#0C4A6E"/>
<path d="M888.494 694.151C892.087 694.151 895 691.238 895 687.645C895 684.052 892.087 681.139 888.494 681.139C884.901 681.139 881.988 684.052 881.988 687.645C881.988 691.238 884.901 694.151 888.494 694.151Z" fill="#0C4A6E"/>
<path d="M473.435 694.151C477.028 694.151 479.941 691.238 479.941 687.645C479.941 684.052 477.028 681.139 473.435 681.139C469.842 681.139 466.93 684.052 466.93 687.645C466.93 691.238 469.842 694.151 473.435 694.151Z" fill="#0C4A6E"/>
<path d="M265.908 694.13C269.489 694.13 272.392 691.227 272.392 687.646C272.392 684.065 269.489 681.162 265.908 681.162C262.327 681.162 259.424 684.065 259.424 687.646C259.424 691.227 262.327 694.13 265.908 694.13Z" fill="#0C4A6E"/>
<path d="M369.674 694.151C373.267 694.151 376.179 691.238 376.179 687.645C376.179 684.052 373.267 681.139 369.674 681.139C366.081 681.139 363.168 684.052 363.168 687.645C363.168 691.238 366.081 694.151 369.674 694.151Z" fill="#0C4A6E"/>
<path d="M162.138 694.13C165.719 694.13 168.622 691.227 168.622 687.646C168.622 684.065 165.719 681.162 162.138 681.162C158.557 681.162 155.654 684.065 155.654 687.646C155.654 691.227 158.557 694.13 162.138 694.13Z" fill="#0C4A6E"/>
<path d="M784.728 694.151C788.321 694.151 791.234 691.238 791.234 687.645C791.234 684.052 788.321 681.139 784.728 681.139C781.135 681.139 778.223 684.052 778.223 687.645C778.223 691.238 781.135 694.151 784.728 694.151Z" fill="#0C4A6E"/>
<path d="M577.203 694.151C580.796 694.151 583.709 691.238 583.709 687.645C583.709 684.052 580.796 681.139 577.203 681.139C573.61 681.139 570.697 684.052 570.697 687.645C570.697 691.238 573.61 694.151 577.203 694.151Z" fill="#0C4A6E"/>
<path d="M680.963 694.151C684.556 694.151 687.469 691.238 687.469 687.645C687.469 684.052 684.556 681.139 680.963 681.139C677.37 681.139 674.457 684.052 674.457 687.645C674.457 691.238 677.37 694.151 680.963 694.151Z" fill="#0C4A6E"/>
<path d="M6.50574 694.151C10.0988 694.151 13.0115 691.238 13.0115 687.645C13.0115 684.052 10.0988 681.139 6.50574 681.139C2.91272 681.139 0 684.052 0 687.645C0 691.238 2.91272 694.151 6.50574 694.151Z" fill="#0C4A6E"/>
<path d="M836.605 694.151C840.198 694.151 843.111 691.238 843.111 687.645C843.111 684.052 840.198 681.139 836.605 681.139C833.012 681.139 830.1 684.052 830.1 687.645C830.1 691.238 833.012 694.151 836.605 694.151Z" fill="#0C4A6E"/>
<path d="M421.547 694.151C425.14 694.151 428.053 691.238 428.053 687.645C428.053 684.052 425.14 681.139 421.547 681.139C417.954 681.139 415.041 684.052 415.041 687.645C415.041 691.238 417.954 694.151 421.547 694.151Z" fill="#0C4A6E"/>
<path d="M214.019 694.13C217.6 694.13 220.503 691.227 220.503 687.646C220.503 684.065 217.6 681.162 214.019 681.162C210.438 681.162 207.535 684.065 207.535 687.646C207.535 691.227 210.438 694.13 214.019 694.13Z" fill="#0C4A6E"/>
<path d="M317.769 694.13C321.35 694.13 324.253 691.227 324.253 687.646C324.253 684.065 321.35 681.162 317.769 681.162C314.188 681.162 311.285 684.065 311.285 687.646C311.285 691.227 314.188 694.13 317.769 694.13Z" fill="#0C4A6E"/>
<path d="M110.242 694.151C113.835 694.151 116.748 691.238 116.748 687.645C116.748 684.052 113.835 681.139 110.242 681.139C106.649 681.139 103.736 684.052 103.736 687.645C103.736 691.238 106.649 694.151 110.242 694.151Z" fill="#0C4A6E"/>
<path d="M732.834 694.151C736.427 694.151 739.34 691.238 739.34 687.645C739.34 684.052 736.427 681.139 732.834 681.139C729.241 681.139 726.328 684.052 726.328 687.645C726.328 691.238 729.241 694.151 732.834 694.151Z" fill="#0C4A6E"/>
<path d="M525.309 694.151C528.902 694.151 531.814 691.238 531.814 687.645C531.814 684.052 528.902 681.139 525.309 681.139C521.715 681.139 518.803 684.052 518.803 687.645C518.803 691.238 521.715 694.151 525.309 694.151Z" fill="#0C4A6E"/>
<path d="M629.064 694.151C632.657 694.151 635.57 691.238 635.57 687.645C635.57 684.052 632.657 681.139 629.064 681.139C625.471 681.139 622.559 684.052 622.559 687.645C622.559 691.238 625.471 694.151 629.064 694.151Z" fill="#0C4A6E"/>
<path d="M58.3726 750.887C61.9535 750.887 64.8565 747.984 64.8565 744.403C64.8565 740.822 61.9535 737.919 58.3726 737.919C54.7916 737.919 51.8887 740.822 51.8887 744.403C51.8887 747.984 54.7916 750.887 58.3726 750.887Z" fill="#0C4A6E"/>
<path d="M888.494 750.909C892.087 750.909 895 747.996 895 744.403C895 740.81 892.087 737.897 888.494 737.897C884.901 737.897 881.988 740.81 881.988 744.403C881.988 747.996 884.901 750.909 888.494 750.909Z" fill="#0C4A6E"/>
<path d="M473.435 750.909C477.028 750.909 479.941 747.996 479.941 744.403C479.941 740.81 477.028 737.897 473.435 737.897C469.842 737.897 466.93 740.81 466.93 744.403C466.93 747.996 469.842 750.909 473.435 750.909Z" fill="#0C4A6E"/>
<path d="M265.908 750.887C269.489 750.887 272.392 747.984 272.392 744.403C272.392 740.822 269.489 737.919 265.908 737.919C262.327 737.919 259.424 740.822 259.424 744.403C259.424 747.984 262.327 750.887 265.908 750.887Z" fill="#0C4A6E"/>
<path d="M369.674 750.909C373.267 750.909 376.179 747.996 376.179 744.403C376.179 740.81 373.267 737.897 369.674 737.897C366.081 737.897 363.168 740.81 363.168 744.403C363.168 747.996 366.081 750.909 369.674 750.909Z" fill="#0C4A6E"/>
<path d="M162.138 750.887C165.719 750.887 168.622 747.984 168.622 744.403C168.622 740.822 165.719 737.919 162.138 737.919C158.557 737.919 155.654 740.822 155.654 744.403C155.654 747.984 158.557 750.887 162.138 750.887Z" fill="#0C4A6E"/>
<path d="M784.728 750.909C788.321 750.909 791.234 747.996 791.234 744.403C791.234 740.81 788.321 737.897 784.728 737.897C781.135 737.897 778.223 740.81 778.223 744.403C778.223 747.996 781.135 750.909 784.728 750.909Z" fill="#0C4A6E"/>
<path d="M577.203 750.909C580.796 750.909 583.709 747.996 583.709 744.403C583.709 740.81 580.796 737.897 577.203 737.897C573.61 737.897 570.697 740.81 570.697 744.403C570.697 747.996 573.61 750.909 577.203 750.909Z" fill="#0C4A6E"/>
<path d="M680.963 750.909C684.556 750.909 687.469 747.996 687.469 744.403C687.469 740.81 684.556 737.897 680.963 737.897C677.37 737.897 674.457 740.81 674.457 744.403C674.457 747.996 677.37 750.909 680.963 750.909Z" fill="#0C4A6E"/>
<path d="M6.50574 750.909C10.0988 750.909 13.0115 747.996 13.0115 744.403C13.0115 740.81 10.0988 737.897 6.50574 737.897C2.91272 737.897 0 740.81 0 744.403C0 747.996 2.91272 750.909 6.50574 750.909Z" fill="#0C4A6E"/>
<path d="M836.605 750.909C840.198 750.909 843.111 747.996 843.111 744.403C843.111 740.81 840.198 737.897 836.605 737.897C833.012 737.897 830.1 740.81 830.1 744.403C830.1 747.996 833.012 750.909 836.605 750.909Z" fill="#0C4A6E"/>
<path d="M421.547 750.909C425.14 750.909 428.053 747.996 428.053 744.403C428.053 740.81 425.14 737.897 421.547 737.897C417.954 737.897 415.041 740.81 415.041 744.403C415.041 747.996 417.954 750.909 421.547 750.909Z" fill="#0C4A6E"/>
<path d="M214.019 750.887C217.6 750.887 220.503 747.984 220.503 744.403C220.503 740.822 217.6 737.919 214.019 737.919C210.438 737.919 207.535 740.822 207.535 744.403C207.535 747.984 210.438 750.887 214.019 750.887Z" fill="#0C4A6E"/>
<path d="M317.769 750.887C321.35 750.887 324.253 747.984 324.253 744.403C324.253 740.822 321.35 737.919 317.769 737.919C314.188 737.919 311.285 740.822 311.285 744.403C311.285 747.984 314.188 750.887 317.769 750.887Z" fill="#0C4A6E"/>
<path d="M110.242 750.909C113.835 750.909 116.748 747.996 116.748 744.403C116.748 740.81 113.835 737.897 110.242 737.897C106.649 737.897 103.736 740.81 103.736 744.403C103.736 747.996 106.649 750.909 110.242 750.909Z" fill="#0C4A6E"/>
<path d="M732.834 750.909C736.427 750.909 739.34 747.996 739.34 744.403C739.34 740.81 736.427 737.897 732.834 737.897C729.241 737.897 726.328 740.81 726.328 744.403C726.328 747.996 729.241 750.909 732.834 750.909Z" fill="#0C4A6E"/>
<path d="M525.309 750.909C528.902 750.909 531.814 747.996 531.814 744.403C531.814 740.81 528.902 737.897 525.309 737.897C521.715 737.897 518.803 740.81 518.803 744.403C518.803 747.996 521.715 750.909 525.309 750.909Z" fill="#0C4A6E"/>
<path d="M629.064 750.909C632.657 750.909 635.57 747.996 635.57 744.403C635.57 740.81 632.657 737.897 629.064 737.897C625.471 737.897 622.559 740.81 622.559 744.403C622.559 747.996 625.471 750.909 629.064 750.909Z" fill="#0C4A6E"/>
<path d="M58.3726 807.65C61.9535 807.65 64.8565 804.747 64.8565 801.166C64.8565 797.585 61.9535 794.682 58.3726 794.682C54.7916 794.682 51.8887 797.585 51.8887 801.166C51.8887 804.747 54.7916 807.65 58.3726 807.65Z" fill="#0C4A6E"/>
<path d="M888.494 807.674C892.087 807.674 895 804.761 895 801.168C895 797.575 892.087 794.663 888.494 794.663C884.901 794.663 881.988 797.575 881.988 801.168C881.988 804.761 884.901 807.674 888.494 807.674Z" fill="#0C4A6E"/>
<path d="M473.435 807.674C477.028 807.674 479.941 804.761 479.941 801.168C479.941 797.575 477.028 794.663 473.435 794.663C469.842 794.663 466.93 797.575 466.93 801.168C466.93 804.761 469.842 807.674 473.435 807.674Z" fill="#0C4A6E"/>
<path d="M265.908 807.65C269.489 807.65 272.392 804.747 272.392 801.166C272.392 797.585 269.489 794.682 265.908 794.682C262.327 794.682 259.424 797.585 259.424 801.166C259.424 804.747 262.327 807.65 265.908 807.65Z" fill="#0C4A6E"/>
<path d="M369.674 807.674C373.267 807.674 376.179 804.761 376.179 801.168C376.179 797.575 373.267 794.662 369.674 794.662C366.081 794.662 363.168 797.575 363.168 801.168C363.168 804.761 366.081 807.674 369.674 807.674Z" fill="#0C4A6E"/>
<path d="M162.138 807.65C165.719 807.65 168.622 804.747 168.622 801.166C168.622 797.585 165.719 794.682 162.138 794.682C158.557 794.682 155.654 797.585 155.654 801.166C155.654 804.747 158.557 807.65 162.138 807.65Z" fill="#0C4A6E"/>
<path d="M784.728 807.674C788.321 807.674 791.234 804.761 791.234 801.168C791.234 797.575 788.321 794.662 784.728 794.662C781.135 794.662 778.223 797.575 778.223 801.168C778.223 804.761 781.135 807.674 784.728 807.674Z" fill="#0C4A6E"/>
<path d="M577.203 807.674C580.796 807.674 583.709 804.761 583.709 801.168C583.709 797.575 580.796 794.663 577.203 794.663C573.61 794.663 570.697 797.575 570.697 801.168C570.697 804.761 573.61 807.674 577.203 807.674Z" fill="#0C4A6E"/>
<path d="M680.963 807.674C684.556 807.674 687.469 804.761 687.469 801.168C687.469 797.575 684.556 794.663 680.963 794.663C677.37 794.663 674.457 797.575 674.457 801.168C674.457 804.761 677.37 807.674 680.963 807.674Z" fill="#0C4A6E"/>
<path d="M6.50574 807.674C10.0988 807.674 13.0115 804.761 13.0115 801.168C13.0115 797.575 10.0988 794.662 6.50574 794.662C2.91272 794.662 0 797.575 0 801.168C0 804.761 2.91272 807.674 6.50574 807.674Z" fill="#0C4A6E"/>
<path d="M836.605 807.674C840.198 807.674 843.111 804.761 843.111 801.168C843.111 797.575 840.198 794.663 836.605 794.663C833.012 794.663 830.1 797.575 830.1 801.168C830.1 804.761 833.012 807.674 836.605 807.674Z" fill="#0C4A6E"/>
<path d="M421.547 807.674C425.14 807.674 428.053 804.761 428.053 801.168C428.053 797.575 425.14 794.663 421.547 794.663C417.954 794.663 415.041 797.575 415.041 801.168C415.041 804.761 417.954 807.674 421.547 807.674Z" fill="#0C4A6E"/>
<path d="M214.019 807.65C217.6 807.65 220.503 804.747 220.503 801.166C220.503 797.585 217.6 794.682 214.019 794.682C210.438 794.682 207.535 797.585 207.535 801.166C207.535 804.747 210.438 807.65 214.019 807.65Z" fill="#0C4A6E"/>
<path d="M317.769 807.65C321.35 807.65 324.253 804.747 324.253 801.166C324.253 797.585 321.35 794.682 317.769 794.682C314.188 794.682 311.285 797.585 311.285 801.166C311.285 804.747 314.188 807.65 317.769 807.65Z" fill="#0C4A6E"/>
<path d="M110.242 807.674C113.835 807.674 116.748 804.761 116.748 801.168C116.748 797.575 113.835 794.663 110.242 794.663C106.649 794.663 103.736 797.575 103.736 801.168C103.736 804.761 106.649 807.674 110.242 807.674Z" fill="#0C4A6E"/>
<path d="M732.834 807.674C736.427 807.674 739.34 804.761 739.34 801.168C739.34 797.575 736.427 794.662 732.834 794.662C729.241 794.662 726.328 797.575 726.328 801.168C726.328 804.761 729.241 807.674 732.834 807.674Z" fill="#0C4A6E"/>
<path d="M525.309 807.674C528.902 807.674 531.814 804.761 531.814 801.168C531.814 797.575 528.902 794.663 525.309 794.663C521.715 794.663 518.803 797.575 518.803 801.168C518.803 804.761 521.715 807.674 525.309 807.674Z" fill="#0C4A6E"/>
<path d="M629.064 807.674C632.657 807.674 635.57 804.761 635.57 801.168C635.57 797.575 632.657 794.663 629.064 794.663C625.471 794.663 622.559 797.575 622.559 801.168C622.559 804.761 625.471 807.674 629.064 807.674Z" fill="#0C4A6E"/>
<path d="M58.3726 864.412C61.9535 864.412 64.8565 861.509 64.8565 857.928C64.8565 854.347 61.9535 851.444 58.3726 851.444C54.7916 851.444 51.8887 854.347 51.8887 857.928C51.8887 861.509 54.7916 864.412 58.3726 864.412Z" fill="#0C4A6E"/>
<path d="M888.494 864.434C892.087 864.434 895 861.521 895 857.928C895 854.335 892.087 851.422 888.494 851.422C884.901 851.422 881.988 854.335 881.988 857.928C881.988 861.521 884.901 864.434 888.494 864.434Z" fill="#0C4A6E"/>
<path d="M473.435 864.434C477.028 864.434 479.941 861.521 479.941 857.928C479.941 854.335 477.028 851.422 473.435 851.422C469.842 851.422 466.93 854.335 466.93 857.928C466.93 861.521 469.842 864.434 473.435 864.434Z" fill="#0C4A6E"/>
<path d="M265.908 864.412C269.489 864.412 272.392 861.509 272.392 857.928C272.392 854.347 269.489 851.445 265.908 851.445C262.327 851.445 259.424 854.347 259.424 857.928C259.424 861.509 262.327 864.412 265.908 864.412Z" fill="#0C4A6E"/>
<path d="M369.674 864.434C373.267 864.434 376.179 861.521 376.179 857.928C376.179 854.335 373.267 851.422 369.674 851.422C366.081 851.422 363.168 854.335 363.168 857.928C363.168 861.521 366.081 864.434 369.674 864.434Z" fill="#0C4A6E"/>
<path d="M162.138 864.412C165.719 864.412 168.622 861.509 168.622 857.928C168.622 854.347 165.719 851.445 162.138 851.445C158.557 851.445 155.654 854.347 155.654 857.928C155.654 861.509 158.557 864.412 162.138 864.412Z" fill="#0C4A6E"/>
<path d="M784.728 864.434C788.321 864.434 791.234 861.521 791.234 857.928C791.234 854.335 788.321 851.422 784.728 851.422C781.135 851.422 778.223 854.335 778.223 857.928C778.223 861.521 781.135 864.434 784.728 864.434Z" fill="#0C4A6E"/>
<path d="M577.203 864.434C580.796 864.434 583.709 861.521 583.709 857.928C583.709 854.335 580.796 851.422 577.203 851.422C573.61 851.422 570.697 854.335 570.697 857.928C570.697 861.521 573.61 864.434 577.203 864.434Z" fill="#0C4A6E"/>
<path d="M680.963 864.434C684.556 864.434 687.469 861.521 687.469 857.928C687.469 854.335 684.556 851.422 680.963 851.422C677.37 851.422 674.457 854.335 674.457 857.928C674.457 861.521 677.37 864.434 680.963 864.434Z" fill="#0C4A6E"/>
<path d="M6.50574 864.434C10.0988 864.434 13.0115 861.521 13.0115 857.928C13.0115 854.335 10.0988 851.422 6.50574 851.422C2.91272 851.422 0 854.335 0 857.928C0 861.521 2.91272 864.434 6.50574 864.434Z" fill="#0C4A6E"/>
<path d="M836.605 864.434C840.198 864.434 843.111 861.521 843.111 857.928C843.111 854.335 840.198 851.422 836.605 851.422C833.012 851.422 830.1 854.335 830.1 857.928C830.1 861.521 833.012 864.434 836.605 864.434Z" fill="#0C4A6E"/>
<path d="M421.547 864.434C425.14 864.434 428.053 861.521 428.053 857.928C428.053 854.335 425.14 851.422 421.547 851.422C417.954 851.422 415.041 854.335 415.041 857.928C415.041 861.521 417.954 864.434 421.547 864.434Z" fill="#0C4A6E"/>
<path d="M214.019 864.412C217.6 864.412 220.503 861.509 220.503 857.928C220.503 854.347 217.6 851.445 214.019 851.445C210.438 851.445 207.535 854.347 207.535 857.928C207.535 861.509 210.438 864.412 214.019 864.412Z" fill="#0C4A6E"/>
<path d="M317.769 864.412C321.35 864.412 324.253 861.509 324.253 857.928C324.253 854.347 321.35 851.445 317.769 851.445C314.188 851.445 311.285 854.347 311.285 857.928C311.285 861.509 314.188 864.412 317.769 864.412Z" fill="#0C4A6E"/>
<path d="M110.242 864.434C113.835 864.434 116.748 861.521 116.748 857.928C116.748 854.335 113.835 851.422 110.242 851.422C106.649 851.422 103.736 854.335 103.736 857.928C103.736 861.521 106.649 864.434 110.242 864.434Z" fill="#0C4A6E"/>
<path d="M732.834 864.434C736.427 864.434 739.34 861.521 739.34 857.928C739.34 854.335 736.427 851.422 732.834 851.422C729.241 851.422 726.328 854.335 726.328 857.928C726.328 861.521 729.241 864.434 732.834 864.434Z" fill="#0C4A6E"/>
<path d="M525.309 864.434C528.902 864.434 531.814 861.521 531.814 857.928C531.814 854.335 528.902 851.422 525.309 851.422C521.715 851.422 518.803 854.335 518.803 857.928C518.803 861.521 521.715 864.434 525.309 864.434Z" fill="#0C4A6E"/>
<path d="M629.064 864.434C632.657 864.434 635.57 861.521 635.57 857.928C635.57 854.335 632.657 851.422 629.064 851.422C625.471 851.422 622.559 854.335 622.559 857.928C622.559 861.521 625.471 864.434 629.064 864.434Z" fill="#0C4A6E"/>
</mask>
<g mask="url(#mask1_1801_23550)">
<rect x="-0.929688" y="0.0316162" width="896.286" height="863.739" fill="url(#paint0_linear_1801_23550)"/>
</g>
</mask>
<g mask="url(#mask0_1801_23550)">
<rect x="895.355" y="0.0316162" width="863.739" height="896.286" transform="rotate(90 895.355 0.0316162)" fill="url(#paint1_linear_1801_23550)" fill-opacity="0.2"/>
</g>
</g>
<defs>
<linearGradient id="paint0_linear_1801_23550" x1="-0.929688" y1="431.901" x2="895.356" y2="431.901" gradientUnits="userSpaceOnUse">
<stop stop-opacity="0"/>
<stop offset="0.390625"/>
</linearGradient>
<linearGradient id="paint1_linear_1801_23550" x1="895.355" y1="448.174" x2="1759.09" y2="448.174" gradientUnits="userSpaceOnUse">
<stop stop-color="white" stop-opacity="0"/>
<stop offset="0.276042" stop-color="white"/>
</linearGradient>
</defs>
</svg>
